<svg xmlns="http://www.w3.org/2000/svg" width="303.277" height="443.721" viewBox="0 0 303.277 443.721">
  <g id="web_portfolio" data-name="web portfolio" transform="translate(1911 103)">
    <path id="samsung_vs_hitachi" data-name="samsung vs hitachi" d="M0,0H303.277V443.721H0Z" transform="translate(-1911 -103)" fill="#fff"/>
    <text id="MY_WEB_" data-name="MY WEB " transform="translate(-1881 -43)" font-size="48" font-family="SnapITC-Regular, Snap ITC"><tspan x="0" y="0">MY WEB </tspan></text>
    <text id="PORTFOLIO" transform="translate(-1868 306)" font-size="37" font-family="SitkaSmall-Italic, Sitka Small" font-style="italic"><tspan x="0" y="0">PORTFOLIO</tspan></text>
    <g id="Path_14" data-name="Path 14" transform="translate(-1849 -23)" fill="#fff">
      <path d="M 168 282.5 L 17 282.5 C 12.59267902374268 282.5 8.449178695678711 280.7837219238281 5.332749843597412 277.667236328125 C 2.216285705566406 274.5508117675781 0.5 270.4073181152344 0.5 266 L 0.5 17 C 0.5 12.59271430969238 2.216285705566406 8.449178695678711 5.332749843597412 5.332749843597412 C 8.449178695678711 2.216285705566406 12.59271430969238 0.5 17 0.5 L 168 0.5 C 172.4073181152344 0.5 176.5508270263672 2.216285705566406 179.6672515869141 5.332749843597412 C 182.7837066650391 8.449178695678711 184.5 12.59267902374268 184.5 17 L 184.5 266 C 184.5 270.4073181152344 182.7837066650391 274.5508117675781 179.6672821044922 277.6672973632813 C 176.5508270263672 280.7837219238281 172.4073181152344 282.5 168 282.5 Z" stroke="none"/>
      <path d="M 17 1 C 12.72625732421875 1 8.708282470703125 2.664276123046875 5.686279296875 5.686279296875 C 2.664291381835938 8.708282470703125 1 12.72625732421875 1 17 L 1 266 C 1 270.2737426757813 2.664291381835938 274.2917175292969 5.686279296875 277.313720703125 C 8.708282470703125 280.3357238769531 12.72625732421875 282 17 282 L 168 282 C 172.2737426757813 282 176.2917175292969 280.3357238769531 179.313720703125 277.313720703125 C 182.3357086181641 274.2917175292969 184 270.2737426757813 184 266 L 184 17 C 184 12.72625732421875 182.3357086181641 8.708282470703125 179.313720703125 5.686279296875 C 176.2917175292969 2.664276123046875 172.2737426757813 1 168 1 L 17 1 M 17 0 L 168 0 C 177.3888244628906 0 185 7.61114501953125 185 17 L 185 266 C 185 275.3888549804688 177.3888244628906 283 168 283 L 17 283 C 7.61114501953125 283 0 275.3888549804688 0 266 L 0 17 C 0 7.61114501953125 7.61114501953125 0 17 0 Z" stroke="none" fill="#707070"/>
    </g>
  </g>
</svg>
